<svg width="61" height="92" viewBox="0 0 61 92" fill="none" xmlns="http://www.w3.org/2000/svg">
    <path d="M0 9.99999C0 4.47715 4.47715 0 10 0H32.1758L0 30.6667V9.99999Z" fill="#8B5CF6" style="fill:#8B5CF6;fill:color(display-p3 0.5451 0.3608 0.9647);fill-opacity:1;"/>
    <path d="M28.8242 91.9998L61 62.6665V81.9998C61 87.5227 56.5229 91.9998 51 91.9998H28.8242Z" fill="#8B5CF6" style="fill:#8B5CF6;fill:color(display-p3 0.5451 0.3608 0.9647);fill-opacity:1;"/>
    <path d="M36.8681 0L51 1.86161e-07C56.5228 2.58914e-07 61 4.47715 61 10V31.3333L31.1703 5.33333L36.8681 0Z" fill="#8B5CF6" style="fill:#8B5CF6;fill:color(display-p3 0.5451 0.3608 0.9647);fill-opacity:1;"/>
    <path d="M24.1319 92L10 92C4.47716 92 1.41263e-05 87.5228 1.41263e-05 82V61.6667L28.8242 87.3333L24.1319 92Z" fill="#8B5CF6" style="fill:#8B5CF6;fill:color(display-p3 0.5451 0.3608 0.9647);fill-opacity:1;"/>
    <path d="M52.2857 26L61 33.6667V60L52.2857 67.3333V26Z" fill="#8B5CF6" style="fill:#8B5CF6;fill:color(display-p3 0.5451 0.3608 0.9647);fill-opacity:1;"/>
    <path d="M8.71429 26L8.46386e-06 33.6667V60L8.71429 67.3333V26Z" fill="#8B5CF6" style="fill:#8B5CF6;fill:color(display-p3 0.5451 0.3608 0.9647);fill-opacity:1;"/>
    <path d="M22.1209 43.6143C22.1209 38.876 27.3551 36.0074 31.349 38.5567L36.5597 41.8826C40.2788 44.2564 40.2499 49.6975 36.5058 52.0317L31.2952 55.2802C27.2986 57.7718 22.1209 54.8983 22.1209 50.1887V43.6143Z" fill="#8B5CF6" style="fill:#8B5CF6;fill:color(display-p3 0.5451 0.3608 0.9647);fill-opacity:1;"/>
</svg>
