<svg width="20" height="20" viewBox="0 0 20 20" fill="none" xmlns="http://www.w3.org/2000/svg">
<path fill-rule="evenodd" clip-rule="evenodd" d="M7.222 9.89706C9.522 7.58972 11.77 5.33839 13.966 3.14306C14.0809 3.02222 14.145 2.86183 14.145 2.69506C14.145 2.52828 14.0809 2.36789 13.966 2.24706C13.655 1.90106 13.163 1.93106 12.939 2.16706C10.663 4.44906 8.282 6.83406 5.796 9.32206C5.59867 9.48406 5.5 9.67539 5.5 9.89606C5.5 10.1167 5.59867 10.3141 5.796 10.4881L13.279 17.7941C13.4227 17.9259 13.612 17.9966 13.8069 17.9911C14.0018 17.9857 14.1869 17.9046 14.323 17.7651C14.681 17.4061 14.543 17.0521 14.381 16.8841C11.9909 14.5582 9.60425 12.2289 7.221 9.89606" fill="black" style="fill:black;fill-opacity:1;"/>
</svg>
