<svg width="20" height="20" viewBox="0 0 20 20" fill="none" xmlns="http://www.w3.org/2000/svg">
<path fill-rule="evenodd" clip-rule="evenodd" d="M12.778 9.89706C10.478 7.58972 8.23 5.33839 6.034 3.14306C5.91906 3.02222 5.85495 2.86183 5.85495 2.69506C5.85495 2.52828 5.91906 2.36789 6.034 2.24706C6.345 1.90106 6.837 1.93106 7.061 2.16706C9.337 4.44906 11.718 6.83406 14.204 9.32206C14.4013 9.48406 14.5 9.67539 14.5 9.89606C14.5 10.1167 14.4013 10.3141 14.204 10.4881L6.721 17.7941C6.57734 17.9259 6.38801 17.9966 6.19312 17.9911C5.99824 17.9857 5.81312 17.9046 5.677 17.7651C5.319 17.4061 5.457 17.0521 5.619 16.8841C8.00908 14.5582 10.3958 12.2289 12.779 9.89606" fill="black" style="fill:black;fill-opacity:1;"/>
</svg>
