<svg width="16" height="16" viewBox="0 0 16 16" fill="none" xmlns="http://www.w3.org/2000/svg">
<g clip-path="url(#clip0_115_213)">
<path d="M8 2.00066C8.55224 2.00066 9.08356 2.07178 9.59397 2.21403C10.1044 2.35627 10.5813 2.55708 11.0248 2.81647C11.4682 3.07586 11.8741 3.38963 12.2422 3.75779C12.6104 4.12595 12.9221 4.52967 13.1773 4.96895C13.4325 5.40824 13.6354 5.88726 13.786 6.40603C13.9366 6.9248 14.0077 7.45613 13.9993 8C13.9993 8.55224 13.9282 9.08356 13.786 9.59397C13.6437 10.1044 13.4429 10.5813 13.1835 11.0248C12.9241 11.4682 12.6104 11.8741 12.2422 12.2422C11.8741 12.6104 11.4703 12.9221 11.031 13.1773C10.5918 13.4325 10.1127 13.6354 9.59397 13.786C9.0752 13.9366 8.54387 14.0077 8 13.9993C7.44776 13.9993 6.91644 13.9282 6.40603 13.786C5.89563 13.6437 5.41869 13.4429 4.97523 13.1835C4.53176 12.9241 4.12595 12.6104 3.75779 12.2422C3.38963 11.8741 3.07795 11.4703 2.82275 11.031C2.56754 10.5918 2.36464 10.1127 2.21403 9.59397C2.06342 9.0752 1.99229 8.54387 2.00066 8C2.00066 7.44776 2.07178 6.91644 2.21403 6.40603C2.35627 5.89563 2.55708 5.41869 2.81647 4.97523C3.07586 4.53176 3.38963 4.12595 3.75779 3.75779C4.12595 3.38963 4.52967 3.07795 4.96895 2.82275C5.40824 2.56754 5.88726 2.36464 6.40603 2.21403C6.9248 2.06342 7.45613 1.99229 8 2.00066ZM8 13.2463C8.48112 13.2463 8.9455 13.1835 9.39315 13.058C9.8408 12.9325 10.2592 12.7568 10.6482 12.5309C11.0373 12.305 11.3908 12.0309 11.7088 11.7088C12.0268 11.3867 12.2987 11.0331 12.5246 10.6482C12.7505 10.2633 12.9283 9.84498 13.058 9.39315C13.1877 8.94132 13.2505 8.47694 13.2463 8C13.2463 7.51888 13.1835 7.0545 13.058 6.60685C12.9325 6.1592 12.7568 5.74083 12.5309 5.35176C12.305 4.96268 12.0309 4.60916 11.7088 4.2912C11.3867 3.97325 11.0331 3.70131 10.6482 3.47539C10.2633 3.24948 9.84498 3.07167 9.39315 2.94198C8.94132 2.81229 8.47694 2.74953 8 2.75372C7.51888 2.75372 7.0545 2.81647 6.60685 2.94198C6.1592 3.06749 5.74083 3.2432 5.35176 3.46912C4.96268 3.69503 4.60916 3.96906 4.2912 4.2912C3.97325 4.61334 3.70131 4.96686 3.47539 5.35176C3.24948 5.73665 3.07167 6.15502 2.94198 6.60685C2.81229 7.05868 2.74953 7.52307 2.75372 8C2.75372 8.48112 2.81647 8.9455 2.94198 9.39315C3.06749 9.8408 3.2432 10.2592 3.46912 10.6482C3.69503 11.0373 3.96906 11.3908 4.2912 11.7088C4.61334 12.0268 4.96686 12.2987 5.35176 12.5246C5.73665 12.7505 6.15502 12.9283 6.60685 13.058C7.05868 13.1877 7.52307 13.2505 8 13.2463ZM7.59837 10.8114H8.40163V11.6147H7.59837V10.8114ZM8 4.78696C8.27612 4.78696 8.53551 4.83926 8.77816 4.94385C9.02081 5.04844 9.23208 5.19278 9.41198 5.37686C9.59187 5.56094 9.73621 5.7743 9.84498 6.01695C9.95376 6.25961 10.0081 6.51899 10.0081 6.79511C10.0081 7.04613 9.9684 7.26368 9.88891 7.44776C9.80942 7.63184 9.71111 7.80128 9.59397 7.95607C9.47682 8.11087 9.34713 8.24683 9.20489 8.36398C9.06264 8.48112 8.93504 8.60454 8.82208 8.73423C8.70913 8.86392 8.60872 8.99571 8.52086 9.12958C8.43301 9.26346 8.39326 9.42244 8.40163 9.60652V10.0081H7.59837V9.60652C7.59837 9.3555 7.63812 9.13795 7.7176 8.95387C7.79709 8.76979 7.89541 8.60035 8.01255 8.44556C8.12969 8.29076 8.25939 8.15479 8.40163 8.03765C8.54387 7.92051 8.67147 7.79709 8.78443 7.6674C8.89739 7.53771 8.9978 7.40592 9.08565 7.27205C9.17351 7.13817 9.21326 6.97919 9.20489 6.79511C9.20489 6.62777 9.17351 6.47088 9.11076 6.32445C9.048 6.17803 8.96224 6.05042 8.85346 5.94165C8.74469 5.83287 8.61709 5.74711 8.47066 5.68436C8.32423 5.6216 8.16735 5.59022 8 5.59022C7.83265 5.59022 7.67577 5.6216 7.52934 5.68436C7.38291 5.74711 7.25531 5.83287 7.14654 5.94165C7.03776 6.05042 6.952 6.17803 6.88924 6.32445C6.82649 6.47088 6.79511 6.62777 6.79511 6.79511H5.99185C5.99185 6.51899 6.04415 6.25961 6.14874 6.01695C6.25333 5.7743 6.39557 5.56303 6.57547 5.38313C6.75537 5.20324 6.96873 5.0589 7.21557 4.95013C7.4624 4.84135 7.72388 4.78696 8 4.78696Z" fill="white" style="fill:white;fill-opacity:1;"/>
<path fill-rule="evenodd" clip-rule="evenodd" d="M4.6903 3.25006L3.2603 4.68006C2.5453 5.39506 2.0503 5.89006 1.7003 6.30006C1.3563 6.70606 1.2053 6.96906 1.1313 7.19906C0.964022 7.71244 0.964022 8.26567 1.1313 8.77906C1.2063 9.00906 1.3563 9.27206 1.7003 9.67806C2.0523 10.0931 2.5453 10.5871 3.2603 11.2981L4.6903 12.7281C5.4053 13.4431 5.9003 13.9381 6.3103 14.2881C6.7163 14.6321 6.9793 14.7831 7.2093 14.8571C7.7213 15.0231 8.2693 15.0231 8.7893 14.8571C9.0193 14.7821 9.2823 14.6321 9.6883 14.2881C10.1033 13.9361 10.5973 13.4431 11.3083 12.7281L12.7383 11.2981C13.4533 10.5831 13.9483 10.0881 14.2983 9.67806C14.6423 9.27206 14.7933 9.00906 14.8673 8.77906C15.0332 8.26546 15.0332 7.71266 14.8673 7.19906C14.7923 6.96906 14.6423 6.70606 14.2983 6.30006C13.9463 5.88506 13.4533 5.39106 12.7383 4.68006L11.3083 3.25006C10.5933 2.53506 10.0983 2.04006 9.6883 1.69006C9.2823 1.34606 9.0193 1.19506 8.7893 1.12106C8.27591 0.953777 7.72268 0.953777 7.2093 1.12106C6.9793 1.19606 6.7163 1.34606 6.3103 1.69006C5.8953 2.04206 5.4013 2.53506 4.6903 3.25006ZM0.1703 9.09006C0.4333 9.90106 1.1373 10.6001 2.5403 12.0101L3.9703 13.4401C5.3803 14.8501 6.0803 15.5501 6.8903 15.8101C7.6033 16.0421 8.3703 16.0421 9.0903 15.8101C9.9013 15.5461 10.6003 14.8431 12.0103 13.4401L13.4403 12.0101C14.8503 10.6001 15.5503 9.90006 15.8103 9.09006C16.0426 8.37511 16.0426 7.605 15.8103 6.89006C15.5463 6.07906 14.8433 5.38006 13.4403 3.97006L12.0103 2.54006C10.6003 1.13006 9.9003 0.430056 9.0903 0.170056C8.37536 -0.0622191 7.60524 -0.0622191 6.8903 0.170056C6.0793 0.433056 5.3803 1.13706 3.9703 2.54006L2.5403 3.97006C1.1303 5.38006 0.4303 6.08006 0.1703 6.89006C-0.061975 7.605 -0.061975 8.37511 0.1703 9.09006Z" fill="white" style="fill:white;fill-opacity:1;"/>
</g>
<defs>
<clipPath id="clip0_115_213">
<rect width="16" height="16" fill="white" style="fill:white;fill-opacity:1;"/>
</clipPath>
</defs>
</svg>
