<svg width="18" height="18" viewBox="0 0 18 18" fill="none" xmlns="http://www.w3.org/2000/svg">
<g clip-path="url(#clip0_115_217)">
<path d="M10.86 1.80567C10.7729 1.42983 10.5558 1.09683 10.2471 0.86543C9.93842 0.634035 9.5579 0.519117 9.17271 0.540956C8.78753 0.562795 8.42244 0.719987 8.14186 0.984794C7.86129 1.2496 7.68326 1.605 7.63921 1.98828C7.59515 2.37156 7.68789 2.75809 7.90106 3.07965C8.11423 3.40121 8.43414 3.63714 8.80432 3.74581C9.17451 3.85448 9.57118 3.8289 9.92434 3.67358C10.2775 3.51827 10.5644 3.2432 10.7346 2.89692C11.7701 3.13273 12.7327 3.6169 13.5394 4.30767C14.3461 4.99844 14.9727 5.87508 15.3651 6.86198L16.3635 6.46936C15.9013 5.29879 15.1571 4.26055 14.1969 3.44693C13.2368 2.63331 12.0905 2.06952 10.86 1.80567ZM9.27261 2.72705C9.19953 2.72939 9.12671 2.71703 9.05849 2.69068C8.99028 2.66433 8.92806 2.62453 8.87553 2.57366C8.82299 2.52279 8.78122 2.46188 8.7527 2.39454C8.72417 2.32721 8.70947 2.25483 8.70947 2.1817C8.70947 2.10858 8.72417 2.03619 8.7527 1.96886C8.78122 1.90153 8.82299 1.84061 8.87553 1.78974C8.92806 1.73887 8.99028 1.69908 9.05849 1.67273C9.12671 1.64638 9.19953 1.63401 9.27261 1.63636C9.41732 1.63636 9.5561 1.69384 9.65843 1.79617C9.76075 1.89849 9.81824 2.03727 9.81824 2.18198C9.81824 2.32669 9.76075 2.46547 9.65843 2.5678C9.5561 2.67012 9.41732 2.72705 9.27261 2.72705ZM6.87243 3.18042L6.46911 2.18255C5.29855 2.64473 4.26031 3.38896 3.44669 4.34909C2.63307 5.30923 2.06928 6.45551 1.80543 7.68605C1.42958 7.77314 1.09658 7.9902 0.865186 8.29891C0.633791 8.60761 0.518873 8.98813 0.540712 9.37332C0.562551 9.75851 0.719743 10.1236 0.98455 10.4042C1.24936 10.6847 1.60476 10.8628 1.98804 10.9068C2.37132 10.9509 2.75784 10.8581 3.0794 10.645C3.40097 10.4318 3.6369 10.1119 3.74556 9.74171C3.85423 9.37153 3.82865 8.97486 3.67334 8.6217C3.51802 8.26854 3.24296 7.98159 2.89668 7.81148C3.13345 6.77472 3.6192 5.81124 4.31192 5.00435C5.00463 4.19745 5.88347 3.57143 6.87243 3.18042ZM2.18118 9.81905C2.10952 9.81905 2.03857 9.80493 1.97238 9.77751C1.90618 9.75009 1.84603 9.7099 1.79536 9.65924C1.7447 9.60857 1.70451 9.54842 1.67708 9.48222C1.64966 9.41602 1.63555 9.34507 1.63555 9.27342C1.63555 9.20177 1.64966 9.13082 1.67708 9.06462C1.70451 8.99842 1.7447 8.93827 1.79536 8.88761C1.84603 8.83694 1.90618 8.79675 1.97238 8.76933C2.03857 8.74191 2.10952 8.7278 2.18118 8.7278C2.32589 8.7278 2.46467 8.78528 2.56699 8.88761C2.66932 8.98993 2.7268 9.12871 2.7268 9.27342C2.7268 9.41813 2.66932 9.55691 2.56699 9.65924C2.46467 9.76156 2.32589 9.81905 2.18118 9.81905ZM9.27261 14.728C8.96832 14.729 8.67031 14.8148 8.41207 14.9757C8.15383 15.1367 7.94557 15.3665 7.81068 15.6392C6.77498 15.4035 5.8122 14.9192 5.00539 14.2284C4.19858 13.5375 3.57197 12.6607 3.17961 11.6736L2.18174 12.0769C2.64542 13.2495 3.39215 14.289 4.3553 15.1027C5.31844 15.9165 6.46805 16.4792 7.70155 16.7406C7.77241 17.0409 7.9267 17.3151 8.14663 17.5315C8.36656 17.7479 8.64318 17.8977 8.94459 17.9637C9.24599 18.0297 9.55992 18.0092 9.85015 17.9045C10.1404 17.7997 10.3951 17.6151 10.585 17.3719C10.7748 17.1287 10.8921 16.8368 10.9232 16.5298C10.9543 16.2228 10.8981 15.9133 10.7609 15.6369C10.6237 15.3606 10.4112 15.1286 10.1479 14.9678C9.88454 14.8069 9.58113 14.7238 9.27261 14.728ZM9.27261 16.9099C9.12791 16.9099 8.98912 16.8524 8.8868 16.7501C8.78447 16.6478 8.72699 16.509 8.72699 16.3643C8.72699 16.2196 8.78447 16.0808 8.8868 15.9785C8.98912 15.8762 9.12791 15.8187 9.27261 15.8187C9.41732 15.8187 9.5561 15.8762 9.65843 15.9785C9.76075 16.0808 9.81824 16.2196 9.81824 16.3643C9.81824 16.509 9.76075 16.6478 9.65843 16.7501C9.5561 16.8524 9.41732 16.9099 9.27261 16.9099ZM17.9998 9.27286C18.0008 8.9808 17.9236 8.6938 17.7763 8.44161C17.629 8.18943 17.4169 7.98126 17.162 7.83868C16.9071 7.69611 16.6187 7.62433 16.3267 7.6308C16.0347 7.63726 15.7498 7.72173 15.5015 7.87544C15.2531 8.02915 15.0504 8.2465 14.9144 8.50495C14.7784 8.76341 14.714 9.05355 14.7279 9.34527C14.7418 9.637 14.8336 9.91969 14.9936 10.164C15.1536 10.4084 15.376 10.6054 15.6379 10.7348C15.402 11.7704 14.9177 12.7331 14.2269 13.5398C13.536 14.3465 12.6592 14.973 11.6722 15.3653L12.0761 16.3637C13.2487 15.9 14.2882 15.1533 15.1019 14.1902C15.9157 13.227 16.4784 12.0774 16.7398 10.8439C17.0949 10.7599 17.4117 10.5597 17.64 10.2751C17.8683 9.99045 17.9949 9.6377 17.9998 9.27286ZM16.3629 9.81848C16.2182 9.81848 16.0794 9.761 15.9771 9.65867C15.8748 9.55635 15.8173 9.41757 15.8173 9.27286C15.8173 9.12815 15.8748 8.98937 15.9771 8.88704C16.0794 8.78472 16.2182 8.72723 16.3629 8.72723C16.5076 8.72723 16.6464 8.78472 16.7487 8.88704C16.8511 8.98937 16.9086 9.12815 16.9086 9.27286C16.9086 9.41757 16.8511 9.55635 16.7487 9.65867C16.6464 9.761 16.5076 9.81848 16.3629 9.81848Z" fill="white" style="fill:white;fill-opacity:1;"/>
<path d="M10.794 9.19693C11.1044 8.89389 11.3174 8.50522 11.4058 8.08057C11.4942 7.65592 11.4541 7.21455 11.2905 6.81282C11.1269 6.4111 10.8472 6.06726 10.4873 5.8252C10.1273 5.58314 9.70343 5.45386 9.26967 5.45386C8.83591 5.45386 8.41199 5.58314 8.05206 5.8252C7.69212 6.06726 7.41249 6.4111 7.24889 6.81282C7.08528 7.21455 7.04513 7.65592 7.13355 8.08057C7.22197 8.50522 7.43495 8.89389 7.7453 9.19693C7.37597 9.44656 7.07344 9.7829 6.86418 10.1765C6.65492 10.5701 6.54531 11.009 6.54492 11.4548V12.5455H11.9995V11.4542C11.9985 11.008 11.8881 10.5688 11.678 10.1752C11.4678 9.78151 11.1643 9.44599 10.794 9.19693ZM8.18123 7.63599C8.18123 7.49268 8.20946 7.35078 8.2643 7.21839C8.31914 7.08599 8.39952 6.96569 8.50085 6.86436C8.60219 6.76303 8.72248 6.68265 8.85488 6.62781C8.98728 6.57297 9.12918 6.54474 9.27248 6.54474C9.41579 6.54474 9.55769 6.57297 9.69009 6.62781C9.82248 6.68265 9.94278 6.76303 10.0441 6.86436C10.1454 6.96569 10.2258 7.08599 10.2807 7.21839C10.3355 7.35078 10.3637 7.49268 10.3637 7.63599C10.3637 7.92541 10.2488 8.20297 10.0441 8.40762C9.83947 8.61227 9.5619 8.72724 9.27248 8.72724C8.98307 8.72724 8.7055 8.61227 8.50085 8.40762C8.29621 8.20297 8.18123 7.92541 8.18123 7.63599ZM7.63561 11.4542C7.63158 11.2368 7.67093 11.0207 7.75137 10.8186C7.8318 10.6165 7.95171 10.4325 8.10408 10.2772C8.25645 10.122 8.43823 9.99871 8.6388 9.91454C8.83936 9.83037 9.05469 9.78702 9.2722 9.78702C9.48971 9.78702 9.70504 9.83037 9.90561 9.91454C10.1062 9.99871 10.288 10.122 10.4403 10.2772C10.5927 10.4325 10.7126 10.6165 10.793 10.8186C10.8735 11.0207 10.9128 11.2368 10.9088 11.4542H7.63561Z" fill="white" style="fill:white;fill-opacity:1;"/>
</g>
<defs>
<clipPath id="clip0_115_217">
<rect width="18" height="18" fill="white" style="fill:white;fill-opacity:1;"/>
</clipPath>
</defs>
</svg>
